<svg width="75" height="25" viewBox="0 0 75 25" fill="none" xmlns="http://www.w3.org/2000/svg">
<rect x="0.5" y="0.5" width="74" height="24" rx="12" fill="#3070F5"/>
<rect x="0.5" y="0.5" width="74" height="24" rx="12" stroke="#699AFF"/>
<path d="M11.9102 9.79297V8.51562H18.6719V9.79297H16.0586V17H14.5352V9.79297H11.9102ZM21.6484 17.1289C19.791 17.1289 18.6016 15.8105 18.6016 13.8477C18.6016 11.8672 19.791 10.5547 21.6484 10.5547C23.5117 10.5547 24.7012 11.8672 24.6953 13.8477C24.7012 15.8105 23.5117 17.1289 21.6484 17.1289ZM20.1133 13.8359C20.1133 15.002 20.623 15.9336 21.6602 15.9336C22.6797 15.9336 23.1895 15.002 23.1836 13.8359C23.1895 12.6699 22.6797 11.7324 21.6602 11.7383C20.623 11.7324 20.1133 12.6699 20.1133 13.8359ZM29.4648 12.4531C29.3711 11.9727 28.9727 11.6621 28.3398 11.668C27.7012 11.6621 27.2324 11.9844 27.2383 12.418C27.2324 12.7461 27.4961 12.9922 28.1406 13.1445L29.2188 13.3672C30.4199 13.6309 31.0059 14.1875 31.0117 15.1016C31.0059 16.2969 29.957 17.1289 28.293 17.1289C26.6758 17.1289 25.7207 16.4023 25.5625 15.1836H27.0859C27.1738 15.7285 27.5957 15.998 28.293 15.9922C29.0137 15.998 29.4824 15.7051 29.4883 15.2305C29.4824 14.8613 29.1953 14.627 28.5625 14.4922L27.543 14.2695C26.3594 14.0293 25.7441 13.4082 25.75 12.5C25.7441 11.3223 26.7637 10.5547 28.3164 10.5547C29.834 10.5547 30.7715 11.2988 30.8828 12.4531H29.4648ZM35.7578 12.4531C35.6641 11.9727 35.2656 11.6621 34.6328 11.668C33.9941 11.6621 33.5254 11.9844 33.5312 12.418C33.5254 12.7461 33.7891 12.9922 34.4336 13.1445L35.5117 13.3672C36.7129 13.6309 37.2988 14.1875 37.3047 15.1016C37.2988 16.2969 36.25 17.1289 34.5859 17.1289C32.9688 17.1289 32.0137 16.4023 31.8555 15.1836H33.3789C33.4668 15.7285 33.8887 15.998 34.5859 15.9922C35.3066 15.998 35.7754 15.7051 35.7812 15.2305C35.7754 14.8613 35.4883 14.627 34.8555 14.4922L33.8359 14.2695C32.6523 14.0293 32.0371 13.4082 32.043 12.5C32.0371 11.3223 33.0566 10.5547 34.6094 10.5547C36.127 10.5547 37.0645 11.2988 37.1758 12.4531H35.7578ZM42.4375 17H40.8086L43.7969 8.51562H45.6719L48.6719 17H47.043L46.334 14.9023H43.1406L42.4375 17ZM43.5508 13.6719H45.9238L44.7695 10.25H44.6992L43.5508 13.6719ZM49.6094 19.3906V10.6367H51.0742V11.6797H51.168C51.3965 11.2285 51.8652 10.5547 52.9961 10.5547C54.4609 10.5547 55.6152 11.7031 55.6211 13.8242C55.6152 15.916 54.4961 17.1113 52.9961 17.1172C51.9004 17.1113 51.4023 16.4609 51.168 15.9922H51.1094V19.3906H49.6094ZM51.0742 13.8125C51.0801 15.0547 51.6191 15.8867 52.5859 15.8867C53.5762 15.8867 54.0977 15.0137 54.0977 13.8125C54.0977 12.6289 53.5879 11.7793 52.5859 11.7734C51.6074 11.7793 51.0801 12.5762 51.0742 13.8125ZM56.793 19.3906V10.6367H58.2578V11.6797H58.3516C58.5801 11.2285 59.0488 10.5547 60.1797 10.5547C61.6445 10.5547 62.7988 11.7031 62.8047 13.8242C62.7988 15.916 61.6797 17.1113 60.1797 17.1172C59.084 17.1113 58.5859 16.4609 58.3516 15.9922H58.293V19.3906H56.793ZM58.2578 13.8125C58.2637 15.0547 58.8027 15.8867 59.7695 15.8867C60.7598 15.8867 61.2812 15.0137 61.2812 13.8125C61.2812 12.6289 60.7715 11.7793 59.7695 11.7734C58.791 11.7793 58.2637 12.5762 58.2578 13.8125Z" fill="#ECF2FF"/>
</svg>
