<svg width="96" height="25" viewBox="0 0 96 25" fill="none" xmlns="http://www.w3.org/2000/svg">
<rect x="0.5" y="0.5" width="95" height="24" rx="12" fill="#4FBDE5"/>
<rect x="0.5" y="0.5" width="95" height="24" rx="12" stroke="#92E2FF"/>
<path d="M13.2852 17V8.51562H16.4727C18.418 8.51562 19.4551 9.60547 19.4609 11.2227C19.4551 12.377 18.9277 13.2324 17.9316 13.6367L19.7656 17H18.0664L16.4023 13.8945H14.8086V17H13.2852ZM14.8086 12.6172H16.2383C17.3867 12.623 17.9023 12.1309 17.9023 11.2227C17.9023 10.3203 17.3867 9.79297 16.2383 9.79297H14.8086V12.6172ZM23.4336 17.1289C21.5176 17.1289 20.3398 15.8516 20.3398 13.8594C20.3398 11.8906 21.5352 10.5547 23.3516 10.5547C24.9102 10.5547 26.2578 11.5332 26.2578 13.7656V14.2344H21.8164C21.8398 15.3184 22.4785 15.9629 23.4453 15.957C24.1016 15.9629 24.541 15.6816 24.7344 15.3008H26.1992C25.9297 16.4023 24.9102 17.1289 23.4336 17.1289ZM21.8223 13.2148H24.8281C24.8223 12.3477 24.2363 11.7148 23.375 11.7148C22.4785 11.7148 21.875 12.4062 21.8223 13.2148ZM27.125 15.207C27.125 13.7773 28.3145 13.3613 29.4922 13.2852C29.9375 13.25 30.8457 13.209 31.127 13.1973L31.1211 12.6875C31.1211 12.0547 30.7168 11.6914 29.9727 11.6914C29.3047 11.6914 28.8945 11.9961 28.7773 12.4531H27.3359C27.4414 11.3691 28.4141 10.5547 30.0078 10.5547C31.2148 10.5547 32.6094 11.0527 32.6094 12.7461V17H31.1797V16.1211H31.1328C30.8516 16.6602 30.2598 17.1289 29.2578 17.1289C28.0449 17.1289 27.125 16.4668 27.125 15.207ZM28.5664 15.1953C28.5664 15.7461 29.0176 16.0273 29.6445 16.0273C30.5527 16.0273 31.1328 15.4297 31.1328 14.7148L31.127 14.1934C30.8574 14.2051 30.0254 14.2578 29.7266 14.2812C29.0176 14.3398 28.5664 14.6387 28.5664 15.1953ZM36.793 17.1289C34.8945 17.1289 33.7461 15.7695 33.7461 13.8477C33.7461 11.8965 34.9297 10.5547 36.793 10.5547C38.334 10.5547 39.418 11.457 39.5234 12.8281H38.0938C37.9766 12.2188 37.5312 11.7559 36.8047 11.75C35.8789 11.7559 35.2578 12.5293 35.2578 13.8125C35.2578 15.125 35.8672 15.9043 36.8047 15.9102C37.4668 15.9043 37.959 15.5176 38.0938 14.832H39.5234C39.4121 16.1738 38.3926 17.1289 36.793 17.1289ZM43.8242 10.6367V11.7852H42.5703V15.0898C42.5703 15.6992 42.875 15.8223 43.25 15.8281C43.4258 15.834 43.7188 15.8164 43.9062 15.8047V17.0234C43.7305 17.0527 43.4434 17.0879 43.0625 17.082C41.9375 17.0879 41.0703 16.5312 41.082 15.3359V11.7852H40.168V10.6367H41.082V9.11328H42.5703V10.6367H43.8242ZM54.8633 8.51562V17H53.5039L49.4844 11.1992H49.4141V17H47.8906V8.51562H49.2734L53.2695 14.3164H53.3516V8.51562H54.8633ZM56.0703 15.207C56.0703 13.7773 57.2598 13.3613 58.4375 13.2852C58.8828 13.25 59.791 13.209 60.0723 13.1973L60.0664 12.6875C60.0664 12.0547 59.6621 11.6914 58.918 11.6914C58.25 11.6914 57.8398 11.9961 57.7227 12.4531H56.2812C56.3867 11.3691 57.3594 10.5547 58.9531 10.5547C60.1602 10.5547 61.5547 11.0527 61.5547 12.7461V17H60.125V16.1211H60.0781C59.7969 16.6602 59.2051 17.1289 58.2031 17.1289C56.9902 17.1289 56.0703 16.4668 56.0703 15.207ZM57.5117 15.1953C57.5117 15.7461 57.9629 16.0273 58.5898 16.0273C59.498 16.0273 60.0781 15.4297 60.0781 14.7148L60.0723 14.1934C59.8027 14.2051 58.9707 14.2578 58.6719 14.2812C57.9629 14.3398 57.5117 14.6387 57.5117 15.1953ZM66.1367 10.6367V11.7852H64.8828V15.0898C64.8828 15.6992 65.1875 15.8223 65.5625 15.8281C65.7383 15.834 66.0312 15.8164 66.2188 15.8047V17.0234C66.043 17.0527 65.7559 17.0879 65.375 17.082C64.25 17.0879 63.3828 16.5312 63.3945 15.3359V11.7852H62.4805V10.6367H63.3945V9.11328H64.8828V10.6367H66.1367ZM67.2852 17V10.6367H68.7852V17H67.2852ZM67.1797 8.91406C67.1797 8.46875 67.5723 8.10547 68.0469 8.10547C68.5215 8.10547 68.9141 8.46875 68.9141 8.91406C68.9141 9.36523 68.5215 9.72852 68.0469 9.73438C67.5723 9.72852 67.1797 9.36523 67.1797 8.91406ZM75.8984 10.6367L73.625 17H71.9844L69.7109 10.6367H71.3047L72.7695 15.3711H72.8398L74.3164 10.6367H75.8984ZM79.4375 17.1289C77.5215 17.1289 76.3438 15.8516 76.3438 13.8594C76.3438 11.8906 77.5391 10.5547 79.3555 10.5547C80.9141 10.5547 82.2617 11.5332 82.2617 13.7656V14.2344H77.8203C77.8438 15.3184 78.4824 15.9629 79.4492 15.957C80.1055 15.9629 80.5449 15.6816 80.7383 15.3008H82.2031C81.9336 16.4023 80.9141 17.1289 79.4375 17.1289ZM77.8262 13.2148H80.832C80.8262 12.3477 80.2402 11.7148 79.3789 11.7148C78.4824 11.7148 77.8789 12.4062 77.8262 13.2148Z" fill="#EEFAFF"/>
</svg>
