<svg width="78" height="25" viewBox="0 0 78 25" fill="none" xmlns="http://www.w3.org/2000/svg">
<rect x="0.5" y="0.5" width="77" height="24" rx="12" fill="#3C3D3F"/>
<rect x="0.5" y="0.5" width="77" height="24" rx="12" stroke="#56575A"/>
<path d="M15.0781 17L12.6875 8.51562H14.3281L15.8633 14.7617H15.9453L17.5742 8.51562H19.0742L20.7148 14.7734H20.7852L22.3203 8.51562H23.9609L21.5703 17H20.0586L18.3594 11.0352H18.3008L16.5898 17H15.0781ZM27.0312 17.1289C25.1152 17.1289 23.9375 15.8516 23.9375 13.8594C23.9375 11.8906 25.1328 10.5547 26.9492 10.5547C28.5078 10.5547 29.8555 11.5332 29.8555 13.7656V14.2344H25.4141C25.4375 15.3184 26.0762 15.9629 27.043 15.957C27.6992 15.9629 28.1387 15.6816 28.332 15.3008H29.7969C29.5273 16.4023 28.5078 17.1289 27.0312 17.1289ZM25.4199 13.2148H28.4258C28.4199 12.3477 27.834 11.7148 26.9727 11.7148C26.0762 11.7148 25.4727 12.4062 25.4199 13.2148ZM31.0859 17V8.51562H32.5859V11.6797H32.6445C32.873 11.2285 33.3359 10.5547 34.4609 10.5547C35.9316 10.5547 37.0918 11.7031 37.0977 13.8242C37.0918 15.916 35.9668 17.1113 34.4727 17.1172C33.3711 17.1113 32.8789 16.4609 32.6445 15.9922H32.5508V17H31.0859ZM32.5508 13.8125C32.5508 15.0547 33.0957 15.8867 34.0508 15.8867C35.0469 15.8867 35.5684 15.0137 35.5742 13.8125C35.5684 12.6289 35.0586 11.7793 34.0508 11.7734C33.084 11.7793 32.5508 12.5762 32.5508 13.8125ZM38.7852 8.51562L40.9883 15.207H41.082L43.2969 8.51562H44.9727L41.9727 17H40.0977L37.1094 8.51562H38.7852ZM45.9102 17V10.6367H47.4102V17H45.9102ZM45.8047 8.91406C45.8047 8.46875 46.1973 8.10547 46.6719 8.10547C47.1465 8.10547 47.5391 8.46875 47.5391 8.91406C47.5391 9.36523 47.1465 9.72852 46.6719 9.73438C46.1973 9.72852 45.8047 9.36523 45.8047 8.91406ZM51.6641 17.1289C49.748 17.1289 48.5703 15.8516 48.5703 13.8594C48.5703 11.8906 49.7656 10.5547 51.582 10.5547C53.1406 10.5547 54.4883 11.5332 54.4883 13.7656V14.2344H50.0469C50.0703 15.3184 50.709 15.9629 51.6758 15.957C52.332 15.9629 52.7715 15.6816 52.9648 15.3008H54.4297C54.1602 16.4023 53.1406 17.1289 51.6641 17.1289ZM50.0527 13.2148H53.0586C53.0527 12.3477 52.4668 11.7148 51.6055 11.7148C50.709 11.7148 50.1055 12.4062 50.0527 13.2148ZM56.9375 17L55.1328 10.6367H56.6562L57.7812 15.1133H57.8398L58.9766 10.6367H60.4883L61.6367 15.0898H61.6953L62.8086 10.6367H64.332L62.5273 17H60.9688L59.7734 12.6875H59.6914L58.4961 17H56.9375Z" fill="#E2E2E2"/>
</svg>
