<svg width="98" height="25" viewBox="0 0 98 25" fill="none" xmlns="http://www.w3.org/2000/svg">
<rect x="0.5" y="0.5" width="97" height="24" rx="12" fill="#FF872C"/>
<rect x="0.5" y="0.5" width="97" height="24" rx="12" stroke="#FFB075"/>
<path d="M16.9023 10.8477C16.8262 10.1152 16.2109 9.69336 15.2969 9.69922C14.3301 9.69336 13.7559 10.1621 13.75 10.8008C13.7441 11.5156 14.5 11.8086 15.2031 11.9727L16 12.1836C17.2656 12.4766 18.4844 13.1445 18.4844 14.6211C18.4844 16.1094 17.3066 17.1289 15.2734 17.1289C13.2988 17.1289 12.0449 16.1797 11.9805 14.5039H13.4805C13.5508 15.3887 14.2949 15.8223 15.2617 15.8281C16.2637 15.8223 16.9551 15.3359 16.9609 14.6094C16.9551 13.9414 16.3457 13.6602 15.4258 13.4258L14.4648 13.1797C13.0703 12.8164 12.2031 12.1133 12.2031 10.8945C12.2031 9.39453 13.5332 8.39844 15.3203 8.39844C17.1191 8.39844 18.3438 9.41211 18.3672 10.8477H16.9023ZM19.3867 15.207C19.3867 13.7773 20.5762 13.3613 21.7539 13.2852C22.1992 13.25 23.1074 13.209 23.3887 13.1973L23.3828 12.6875C23.3828 12.0547 22.9785 11.6914 22.2344 11.6914C21.5664 11.6914 21.1562 11.9961 21.0391 12.4531H19.5977C19.7031 11.3691 20.6758 10.5547 22.2695 10.5547C23.4766 10.5547 24.8711 11.0527 24.8711 12.7461V17H23.4414V16.1211H23.3945C23.1133 16.6602 22.5215 17.1289 21.5195 17.1289C20.3066 17.1289 19.3867 16.4668 19.3867 15.207ZM20.8281 15.1953C20.8281 15.7461 21.2793 16.0273 21.9062 16.0273C22.8145 16.0273 23.3945 15.4297 23.3945 14.7148L23.3887 14.1934C23.1191 14.2051 22.2871 14.2578 21.9883 14.2812C21.2793 14.3398 20.8281 14.6387 20.8281 15.1953ZM27.7773 13.2734V17H26.2773V10.6367H27.707V11.7148H27.7891C28.0762 11.0059 28.7266 10.5547 29.6758 10.5547C30.9941 10.5547 31.8613 11.4219 31.8555 12.9453V17H30.3672V13.1797C30.3672 12.3242 29.9043 11.8145 29.125 11.8203C28.334 11.8145 27.7773 12.3477 27.7773 13.2734ZM35.6523 17.1172C34.1582 17.1113 33.0273 15.916 33.0273 13.8242C33.0273 11.7031 34.1875 10.5547 35.6641 10.5547C36.7832 10.5547 37.252 11.2285 37.4805 11.6797H37.5391V8.51562H39.0273V17H37.5625V15.9922H37.4805C37.2402 16.4609 36.7539 17.1113 35.6523 17.1172ZM34.5508 13.8125C34.5508 15.0137 35.0781 15.8867 36.0625 15.8867C37.0293 15.8867 37.5742 15.0547 37.5742 13.8125C37.5742 12.5762 37.0352 11.7793 36.0625 11.7734C35.0664 11.7793 34.5508 12.6289 34.5508 13.8125ZM40.6094 17V8.51562H42.1094V11.6797H42.168C42.3965 11.2285 42.8594 10.5547 43.9844 10.5547C45.4551 10.5547 46.6152 11.7031 46.6211 13.8242C46.6152 15.916 45.4902 17.1113 43.9961 17.1172C42.8945 17.1113 42.4023 16.4609 42.168 15.9922H42.0742V17H40.6094ZM42.0742 13.8125C42.0742 15.0547 42.6191 15.8867 43.5742 15.8867C44.5703 15.8867 45.0918 15.0137 45.0977 13.8125C45.0918 12.6289 44.582 11.7793 43.5742 11.7734C42.6074 11.7793 42.0742 12.5762 42.0742 13.8125ZM50.5703 17.1289C48.7129 17.1289 47.5234 15.8105 47.5234 13.8477C47.5234 11.8672 48.7129 10.5547 50.5703 10.5547C52.4336 10.5547 53.623 11.8672 53.6172 13.8477C53.623 15.8105 52.4336 17.1289 50.5703 17.1289ZM49.0352 13.8359C49.0352 15.002 49.5449 15.9336 50.582 15.9336C51.6016 15.9336 52.1113 15.002 52.1055 13.8359C52.1113 12.6699 51.6016 11.7324 50.582 11.7383C49.5449 11.7324 49.0352 12.6699 49.0352 13.8359ZM55.75 10.6367L57.0391 12.9922L58.3516 10.6367H59.9336L58.0117 13.8125L59.9688 17H58.3984L57.0391 14.7031L55.7148 17H54.1211L56.0664 13.8125L54.168 10.6367H55.75ZM64.9844 17H63.3555L66.3438 8.51562H68.2188L71.2188 17H69.5898L68.8809 14.9023H65.6875L64.9844 17ZM66.0977 13.6719H68.4707L67.3164 10.25H67.2461L66.0977 13.6719ZM72.1562 19.3906V10.6367H73.6211V11.6797H73.7148C73.9434 11.2285 74.4121 10.5547 75.543 10.5547C77.0078 10.5547 78.1621 11.7031 78.168 13.8242C78.1621 15.916 77.043 17.1113 75.543 17.1172C74.4473 17.1113 73.9492 16.4609 73.7148 15.9922H73.6562V19.3906H72.1562ZM73.6211 13.8125C73.627 15.0547 74.166 15.8867 75.1328 15.8867C76.123 15.8867 76.6445 15.0137 76.6445 13.8125C76.6445 12.6289 76.1348 11.7793 75.1328 11.7734C74.1543 11.7793 73.627 12.5762 73.6211 13.8125ZM79.3398 19.3906V10.6367H80.8047V11.6797H80.8984C81.127 11.2285 81.5957 10.5547 82.7266 10.5547C84.1914 10.5547 85.3457 11.7031 85.3516 13.8242C85.3457 15.916 84.2266 17.1113 82.7266 17.1172C81.6309 17.1113 81.1328 16.4609 80.8984 15.9922H80.8398V19.3906H79.3398ZM80.8047 13.8125C80.8105 15.0547 81.3496 15.8867 82.3164 15.8867C83.3066 15.8867 83.8281 15.0137 83.8281 13.8125C83.8281 12.6289 83.3184 11.7793 82.3164 11.7734C81.3379 11.7793 80.8105 12.5762 80.8047 13.8125Z" fill="#FDF7F2"/>
</svg>
